<svg width="29" height="29" viewBox="0 0 29 29" fill="none" xmlns="http://www.w3.org/2000/svg">
<path fill-rule="evenodd" clip-rule="evenodd" d="M18.9104 2.33474L26.7492 10.1653C29.1457 12.5593 29.1457 16.4407 26.7492 18.8347L18.9104 26.6653C16.5138 29.0593 12.6283 29.0593 10.2317 26.6653L2.39292 18.8347C-0.00362432 16.4407 -0.00362179 12.5593 2.39292 10.1653L10.2317 2.33474C12.6283 -0.0592731 16.5138 -0.0592691 18.9104 2.33474ZM16.4308 4.81173C15.4037 3.78573 13.7384 3.78573 12.7113 4.81173L4.87253 12.6423C3.84544 13.6683 3.84544 15.3317 4.87253 16.3577L12.7113 24.1883C13.7384 25.2143 15.4037 25.2143 16.4308 24.1883L24.2696 16.3577C25.2966 15.3317 25.2966 13.6683 24.2696 12.6423L16.4308 4.81173Z" fill="white"/>
</svg>
