<svg width="103" height="31" viewBox="0 0 103 31" fill="none" xmlns="http://www.w3.org/2000/svg">
<path d="M4.05189 1.07165C4.22697 1.5057 4.5146 2.22061 4.91479 3.21638C5.31498 4.18661 5.76519 5.29727 6.26542 6.54836C6.79067 7.79945 7.32842 9.12714 7.87867 10.5314C8.45394 11.9357 8.99169 13.2634 9.49193 14.5145C9.99216 15.7656 10.4424 16.889 10.8426 17.8848C11.2427 18.855 11.5304 19.5571 11.7055 19.9912C11.7305 20.0423 11.793 20.221 11.893 20.5274C11.9931 20.8338 12.0681 21.1019 12.1181 21.3316L12.4933 19.9912C12.6684 19.5571 12.956 18.855 13.3562 17.8848C13.7564 16.889 14.2066 15.7656 14.7069 14.5145C15.2071 13.2634 15.7323 11.9357 16.2826 10.5314C16.8579 9.12714 17.3956 7.79945 17.8958 6.54836C18.4211 5.29727 18.8838 4.18661 19.284 3.21638C19.6842 2.22061 19.9718 1.5057 20.1469 1.07165H24.1988C24.0487 1.42911 23.7736 2.08018 23.3734 3.02488C22.9982 3.94405 22.5355 5.06748 21.9852 6.39517C21.435 7.72285 20.8222 9.1782 20.1469 10.7612C19.4966 12.3442 18.8213 13.9528 18.1209 15.5868C17.4456 17.2209 16.7703 18.8295 16.095 20.4125C15.4447 21.9955 14.8444 23.4508 14.2942 24.7785C13.7689 26.1062 13.3062 27.2424 12.906 28.1871C12.5308 29.1063 12.2682 29.7446 12.1181 30.102L0 1.07165H4.05189Z" fill="white"/>
<path d="M31.3802 28.8382V1.07165H49.2385V4.86322H35.5071V12.9825H47.7378V16.8507H35.5071V24.97H49.7637V28.8382H31.3802Z" fill="white"/>
<path d="M58.2872 28.8382V1.07165H65.7157C67.1414 1.07165 68.442 1.26315 69.6175 1.64613C70.8181 2.02912 71.8436 2.6036 72.6939 3.36957C73.5694 4.11001 74.2447 5.02918 74.7199 6.12707C75.1951 7.19944 75.4327 8.43776 75.4327 9.84205C75.4327 10.608 75.3577 11.374 75.2076 12.14C75.0575 12.8804 74.8074 13.6081 74.4573 14.323C74.1321 15.0124 73.7069 15.6634 73.1817 16.2762C72.6564 16.8635 72.0186 17.3614 71.2683 17.7699C72.2687 19.3784 73.3568 21.1657 74.5323 23.1317C75.7078 25.0721 76.8959 26.9743 78.0965 28.8382H73.1817C72.6814 28.0467 72.1562 27.2169 71.6059 26.3488C71.0807 25.4807 70.5429 24.6253 69.9927 23.7828C69.4674 22.9147 68.9422 22.0721 68.4169 21.255C67.9167 20.4125 67.4415 19.6337 66.9913 18.9188H66.2409H62.4142V28.8382H58.2872ZM62.4142 14.9741H66.1284C67.1289 14.9741 67.9667 14.8081 68.6421 14.4762C69.3174 14.1187 69.8426 13.6847 70.2178 13.174C70.618 12.6634 70.8931 12.1144 71.0432 11.5272C71.2183 10.9399 71.3058 10.4038 71.3058 9.91864C71.3058 9.43353 71.2183 8.91011 71.0432 8.3484C70.8931 7.76115 70.618 7.22497 70.2178 6.73985C69.8176 6.22921 69.2799 5.80792 68.6045 5.476C67.9542 5.14408 67.1414 4.97812 66.1659 4.97812H62.4142V14.9741Z" fill="white"/>
<path d="M101.167 2.6036L99.7039 6.01218C98.6784 5.62919 97.6529 5.3228 96.6275 5.09301C95.627 4.86322 94.664 4.74832 93.7386 4.74832C92.1629 4.74832 90.8998 5.08025 89.9493 5.74409C89.0239 6.40793 88.5612 7.2505 88.5612 8.2718C88.5612 9.1399 88.8989 9.84205 89.5742 10.3782C90.2495 10.8889 91.0874 11.3612 92.0878 11.7953C93.0883 12.2038 94.1763 12.6251 95.3519 13.0591C96.5274 13.4677 97.6154 14.0038 98.6159 14.6677C99.6164 15.3315 100.454 16.1741 101.13 17.1954C101.805 18.1912 102.143 19.4805 102.143 21.0636C102.143 22.2891 101.917 23.3998 101.467 24.3955C101.042 25.3658 100.392 26.2083 99.5163 26.9233C98.6659 27.6382 97.5904 28.1871 96.2898 28.5701C95.0142 28.9531 93.5135 29.1446 91.7877 29.1446C90.6872 29.1446 89.6867 29.068 88.7863 28.9148C87.9109 28.7616 87.1105 28.5701 86.3852 28.3403C85.6849 28.085 85.0596 27.8169 84.5093 27.536C83.9841 27.2552 83.5339 26.9998 83.1587 26.7701L84.9595 23.1317C85.96 23.7189 87.073 24.1913 88.2986 24.5487C89.5241 24.9062 90.6372 25.0849 91.6376 25.0849C92.1379 25.0849 92.7507 25.0211 93.476 24.8934C94.2263 24.7658 94.9392 24.5487 95.6145 24.2423C96.2898 23.9104 96.8651 23.4764 97.3403 22.9402C97.8405 22.404 98.0906 21.7274 98.0906 20.9104C98.0906 20.1699 97.8905 19.5444 97.4904 19.0337C97.1152 18.4975 96.6025 18.038 95.9521 17.655C95.3269 17.2465 94.6015 16.889 93.7761 16.5826C92.9758 16.2507 92.1504 15.9188 91.3 15.5868C90.4496 15.2294 89.6117 14.8592 88.7863 14.4762C87.9859 14.0932 87.2606 13.6336 86.6103 13.0974C85.985 12.5357 85.4723 11.8974 85.0721 11.1825C84.6969 10.4421 84.5093 9.56119 84.5093 8.53989C84.5093 7.59519 84.6969 6.66326 85.0721 5.74409C85.4473 4.82492 86.01 4.00788 86.7604 3.29297C87.5107 2.57807 88.4361 2.00359 89.5367 1.56954C90.6622 1.13548 91.9628 0.918457 93.4385 0.918457C94.3389 0.918457 95.2143 0.995054 96.0647 1.14825C96.9401 1.30144 97.728 1.48017 98.4283 1.68443C99.1286 1.86316 99.7164 2.04188 100.192 2.22061C100.692 2.39934 101.017 2.527 101.167 2.6036Z" fill="white"/>
</svg>
